<svg width="60" height="60" viewBox="0 0 60 60" fill="none" xmlns="http://www.w3.org/2000/svg">
<circle cx="30" cy="30" r="30" fill="white"/>
<path d="M45.3248 21.7271H43.9133L35.5704 13.4809C35.437 13.3491 35.2614 13.2798 35.0718 13.2798C34.8822 13.2798 34.7066 13.3561 34.5732 13.4809L26.2304 21.7271H14.4253C14.0391 21.7271 13.7231 22.0392 13.7231 22.4206V38.4205C13.7231 38.802 14.0391 39.114 14.4253 39.114H15.8369L24.1868 47.3602C24.3272 47.4989 24.5028 47.5613 24.6854 47.5613C24.868 47.5613 25.0435 47.492 25.184 47.3602L33.5339 39.114H45.3248C45.7111 39.114 46.0271 38.802 46.0271 38.4205V22.4206C46.0271 22.0322 45.7111 21.7271 45.3248 21.7271ZM35.0718 14.9512L41.9259 21.7201H28.2178L35.0718 14.9512ZM24.6784 45.883L17.8243 39.114H31.5395L24.6784 45.883ZM44.6226 37.72H33.2319H16.1248H15.1276V23.1141H26.5183H43.6254H44.6226V37.72Z" fill="#6B9D52"/>
<path d="M41.8908 26.991C41.8416 26.991 41.7995 26.998 41.7644 26.998C40.7461 26.998 39.9174 26.1796 39.9174 25.174C39.9174 25.1323 39.9174 25.0838 39.9244 25.0283C39.9385 24.8341 39.8753 24.6469 39.7418 24.5012C39.6084 24.3556 39.4188 24.2793 39.2292 24.2793H20.5982C20.4016 24.2793 20.212 24.3625 20.0856 24.5012C19.9521 24.6469 19.8889 24.8341 19.903 25.0283C19.91 25.0838 19.91 25.1323 19.91 25.174C19.91 26.1796 19.0813 26.998 18.063 26.998C18.0069 26.998 17.9507 26.998 17.8875 26.991C17.6908 26.9702 17.4942 27.0396 17.3467 27.1713C17.1993 27.3031 17.115 27.4904 17.115 27.6846V32.8376C17.115 33.0317 17.1993 33.219 17.3467 33.3508C17.4942 33.4825 17.6908 33.545 17.8875 33.5311C17.9507 33.5242 18.0069 33.5242 18.063 33.5242C19.0813 33.5242 19.91 34.3425 19.91 35.3482C19.91 35.473 19.8959 35.6048 19.8679 35.7296C19.8257 35.9377 19.8749 36.1457 20.0083 36.3122C20.1417 36.4717 20.3454 36.5688 20.5561 36.5688H39.2783C39.489 36.5688 39.6927 36.4717 39.8261 36.3122C39.9595 36.1527 40.0087 35.9377 39.9666 35.7296C39.9385 35.6048 39.9244 35.473 39.9244 35.3482C39.9244 34.3425 40.7531 33.5242 41.7714 33.5242C41.8065 33.5242 41.8486 33.5242 41.8978 33.5311C42.0944 33.545 42.284 33.4756 42.4245 33.3438C42.5649 33.2121 42.6492 33.0317 42.6492 32.8376V27.6915C42.6492 27.4973 42.572 27.317 42.4245 27.1852C42.277 27.0465 42.0874 26.9772 41.8908 26.991ZM41.2377 32.1718C39.7489 32.4145 38.5972 33.6559 38.5199 35.1748H21.3005C21.2232 33.6351 20.0364 32.3729 18.5125 32.1579V28.3504C19.924 28.1492 21.0547 27.0534 21.2654 25.6594H38.548C38.7587 27.0257 39.8542 28.1146 41.2306 28.3434V32.1718H41.2377Z" fill="#6B9D52"/>
<path d="M29.8751 26.6511C27.7684 26.6511 26.0619 28.3434 26.0619 30.417C26.0619 32.4907 27.7754 34.1829 29.8751 34.1829C31.9749 34.1829 33.6884 32.4907 33.6884 30.417C33.6884 28.3434 31.9819 26.6511 29.8751 26.6511ZM29.8751 32.7959C28.5479 32.7959 27.4664 31.7278 27.4664 30.417C27.4664 29.1062 28.5479 28.0382 29.8751 28.0382C31.2024 28.0382 32.2839 29.1062 32.2839 30.417C32.2839 31.7278 31.2024 32.7959 29.8751 32.7959Z" fill="#6B9D52"/>
<path d="M22.5715 28.4543C21.476 28.4543 20.5841 29.3351 20.5841 30.4171C20.5841 31.499 21.476 32.3798 22.5715 32.3798C23.667 32.3798 24.5589 31.499 24.5589 30.4171C24.5589 29.3351 23.667 28.4543 22.5715 28.4543ZM22.5715 30.9927C22.2485 30.9927 21.9886 30.7361 21.9886 30.4171C21.9886 30.098 22.2485 29.8414 22.5715 29.8414C22.8945 29.8414 23.1544 30.098 23.1544 30.4171C23.1544 30.7361 22.8945 30.9927 22.5715 30.9927Z" fill="#6B9D52"/>
<path d="M37.3471 28.4543C36.2516 28.4543 35.3597 29.3351 35.3597 30.4171C35.3597 31.499 36.2516 32.3798 37.3471 32.3798C38.4426 32.3798 39.3345 31.499 39.3345 30.4171C39.3345 29.3351 38.4426 28.4543 37.3471 28.4543ZM37.3471 30.9927C37.024 30.9927 36.7642 30.7361 36.7642 30.4171C36.7642 30.098 37.024 29.8414 37.3471 29.8414C37.6701 29.8414 37.93 30.098 37.93 30.4171C37.93 30.7361 37.6631 30.9927 37.3471 30.9927Z" fill="#6B9D52"/>
</svg>

