<svg width="200" height="67" viewBox="0 0 200 67" fill="none" xmlns="http://www.w3.org/2000/svg">
<path d="M0 0.825195H199.232V66.4682H0V0.825195Z" fill="white"/>
<path d="M21.7337 60.5777H20.7463V6.58301H21.7337V60.5777ZM11.0302 60.5777H10.0427V6.58301H11.0302V60.5777ZM6.74554 60.5777H5.75806V6.58301H6.74554V60.5777ZM19.5828 60.5777H16.4616V6.58301H19.5828V60.5777ZM15.3154 60.5777H12.1764V6.58301H15.3154V60.5777ZM38.8508 60.5777H37.8633V6.58301H38.8508V60.5777ZM36.6999 60.5777H35.7124V6.58301H36.6999V60.5777ZM34.5661 60.5777H33.5787V6.58301H34.5661V60.5777ZM25.9958 60.5777H22.8751V6.58301H25.9958V60.5777ZM32.4324 60.5777H29.2935V6.58301H32.4324V60.5777ZM40.9797 60.5777H39.9922V6.58301H40.9797V60.5777ZM55.9678 60.5777H54.9804V6.58301H55.9678V60.5777ZM47.398 60.5777H46.4105V6.58301H47.398V60.5777ZM53.8169 60.5777H50.6957V6.58301H53.8169V60.5777ZM45.2643 60.5777H42.1253V6.58301H45.2643V60.5777ZM64.5151 60.5777H63.5276V6.58301H64.5151V60.5777ZM62.3814 60.5777H61.3939V6.58301H62.3814V60.5777ZM66.6665 60.5777H65.6613V6.58301H66.6665V60.5777ZM60.2299 60.5777H57.1092V6.58301H60.2299V60.5777ZM73.0849 60.5777H69.9465V6.58301H73.0849V60.5777ZM75.2138 60.5777H74.2263V6.58301H75.2138V60.5777ZM90.202 60.5777H89.2145V6.58301H90.202V60.5777ZM81.6321 60.5777H80.6446V6.58301H81.6321V60.5777ZM88.051 60.5777H84.9298V6.58301H88.051V60.5777ZM79.4984 60.5777H76.3595V6.58301H79.4984V60.5777ZM92.3308 60.5777H91.3433V6.58301H92.3308V60.5777ZM103.034 60.5777H102.047V6.58301H103.034V60.5777ZM107.319 60.5777H106.332V6.58301H107.319V60.5777ZM100.901 60.5777H97.7617V6.58301H100.901V60.5777ZM96.6155 60.5777H93.4765V6.58301H96.6155V60.5777ZM122.285 60.5777H121.298V6.58301H122.285V60.5777ZM113.733 60.5777H112.745V6.58301H113.733V60.5777ZM124.436 60.5777H123.449V6.58301H124.436V60.5777ZM111.581 60.5777H108.46V6.58301H111.581V60.5777ZM118.018 60.5777H114.879V6.58301H118.018V60.5777ZM137.268 60.5777H136.281V6.58301H137.268V60.5777ZM128.698 60.5777H127.711V6.58301H128.698V60.5777ZM126.565 60.5777H125.577V6.58301H126.565V60.5777ZM132.983 60.5777H129.862V6.58301H132.983V60.5777ZM141.553 60.5777H138.415V6.58301H141.553V60.5777ZM143.682 60.5777H142.695V6.58301H143.682V60.5777ZM158.67 60.5777H157.683V6.58301H158.67V60.5777ZM150.1 60.5777H149.113V6.58301H150.1V60.5777ZM156.519 60.5777H153.398V6.58301H156.519V60.5777ZM147.967 60.5777H144.828V6.58301H147.967V60.5777ZM171.503 60.5777H170.515V6.58301H171.503V60.5777ZM165.084 60.5777H164.096V6.58301H165.084V60.5777ZM167.217 60.5777H166.23V6.58301H167.217V60.5777ZM162.932 60.5777H159.812V6.58301H162.932V60.5777ZM175.787 60.5777H172.649V6.58301H175.787V60.5777ZM192.904 60.5777H191.917V6.58301H192.904V60.5777ZM182.201 60.5777H181.213V6.58301H182.201V60.5777ZM177.916 60.5777H176.929V6.58301H177.916V60.5777ZM190.753 60.5777H187.632V6.58301H190.753V60.5777ZM186.486 60.5777H183.347V6.58301H186.486V60.5777Z" fill="black"/>
</svg>
