<svg width="64" height="64" viewBox="0 0 64 64" fill="none" xmlns="http://www.w3.org/2000/svg">
<rect width="64" height="64" rx="20" fill="white"/>
<path d="M31.6236 21.835C25.7984 21.835 21.0824 26.5561 21.0824 32.3761C21.0824 38.2013 25.8035 42.9173 31.6236 42.9173C37.4488 42.9173 42.1648 38.1962 42.1648 32.3761C42.1648 26.5509 37.4437 21.835 31.6236 21.835ZM31.6236 39.2181C27.8423 39.2181 24.7816 36.1558 24.7816 32.3761C24.7816 28.5965 27.844 25.5341 31.6236 25.5341C35.4032 25.5341 38.4656 28.5965 38.4656 32.3761C38.4673 36.1558 35.4049 39.2181 31.6236 39.2181Z" fill="#6B9D52"/>
<path d="M40.0065 12.1746C36.2659 12.0001 27.0007 12.0086 23.2567 12.1746C19.9668 12.3287 17.0647 13.1233 14.7252 15.4628C10.8151 19.3728 11.3149 24.6414 11.3149 32.3681C11.3149 40.2761 10.8744 45.4228 14.7252 49.2734C18.6504 53.1969 23.9954 52.6836 31.6308 52.6836C39.4644 52.6836 42.1682 52.6887 44.9381 51.6163C48.7041 50.1543 51.5468 46.7882 51.8247 40.742C52.0008 36.9998 51.9907 27.7365 51.8247 23.9925C51.4892 16.8554 47.6588 12.527 40.0065 12.1746ZM45.9274 46.6865C43.3642 49.2497 39.8083 49.021 31.5816 49.021C23.111 49.021 19.7143 49.1464 17.2358 46.6611C14.3813 43.8202 14.898 39.258 14.898 32.341C14.898 22.9812 13.9374 16.2404 23.3313 15.7593C25.4896 15.683 26.1249 15.6576 31.5579 15.6576L31.6342 15.7085C40.6621 15.7085 47.7452 14.7632 48.1704 24.1552C48.267 26.2982 48.289 26.942 48.289 32.3664C48.2873 40.7386 48.4466 44.1556 45.9274 46.6865Z" fill="#6B9D52"/>
<path d="M42.5412 24.0938C43.9967 24.0938 45.1765 22.914 45.1765 21.4585C45.1765 20.0031 43.9967 18.8232 42.5412 18.8232C41.0858 18.8232 39.9059 20.0031 39.9059 21.4585C39.9059 22.914 41.0858 24.0938 42.5412 24.0938Z" fill="#6B9D52"/>
</svg>
