<svg width="41" height="45" viewBox="0 0 41 45" fill="none" xmlns="http://www.w3.org/2000/svg">
<path fill-rule="evenodd" clip-rule="evenodd" d="M20.6409 1.06299C31.2818 1.06299 39.908 9.75238 39.908 20.4713C39.908 31.1902 31.2818 39.8796 20.6409 39.8796C10.0001 39.8796 1.37393 31.1902 1.37393 20.4713C1.37393 9.75238 10.0001 1.06299 20.6409 1.06299Z" fill="#FEFEFE"/>
<path fill-rule="evenodd" clip-rule="evenodd" d="M20.641 0.504395C31.5861 0.504395 40.4622 9.44577 40.4622 20.471C40.4622 31.4966 31.5861 40.4378 20.641 40.4378C9.69591 40.4378 0.819641 31.4966 0.819641 20.471C0.819641 9.44577 9.69591 0.504395 20.641 0.504395ZM20.641 1.30863C31.1452 1.30863 39.6638 9.88994 39.6638 20.471C39.6638 31.0524 31.1452 39.6336 20.641 39.6336C10.1368 39.6336 1.61804 31.0524 1.61804 20.471C1.61804 9.88994 10.1368 1.30863 20.641 1.30863Z" fill="#2B2A29"/>
<path fill-rule="evenodd" clip-rule="evenodd" d="M26.3516 29.7356C25.6777 30.0266 25.0007 29.8477 24.4003 29.512C23.5967 29.0627 23.2342 28.2054 23.1844 27.3314C23.3887 27.3993 23.6009 27.4374 23.8048 27.4364C24.2188 27.4345 24.6047 27.2861 24.8724 26.9354L24.9251 26.8664L24.9584 26.782C25.0662 26.5087 25.0553 26.2498 24.9652 26.0199L24.9644 26.0202C24.8719 25.7857 24.7004 25.5977 24.4966 25.4696C24.4559 25.4395 24.421 25.4086 24.3917 25.3771C24.3251 25.3056 24.2968 25.2326 24.2984 25.1629C24.3008 25.0593 24.3512 24.9389 24.4362 24.8147C24.4929 24.7316 24.5652 24.6488 24.6499 24.5688C24.7701 24.4552 24.9199 24.3451 25.0975 24.2518C26.2604 23.8105 27.6866 23.9039 28.8409 24.8766C29.4623 25.4002 29.6489 26.0992 29.6057 26.8997C29.4743 28.1617 28.0792 28.9257 26.9011 28.456C26.6191 28.3435 26.0608 27.9855 25.7699 28.1495C25.6159 28.2363 25.5484 28.492 25.6613 28.6507C25.8346 28.8944 26.0822 28.9343 26.3203 29.0878C26.6873 29.3242 26.7109 29.5805 26.3516 29.7356ZM26.3934 26.6092C26.1001 26.6952 25.8198 27.1412 26.1852 27.2034C26.9468 27.3328 26.7584 27.4503 27.0724 27.5013C27.536 27.5764 27.648 27.1126 27.3488 26.8022C27.1609 26.6073 26.744 26.5064 26.3934 26.6092Z" fill="#2B2A29"/>
<path fill-rule="evenodd" clip-rule="evenodd" d="M16.4066 16.072C16.3364 17.5378 16.4353 18.851 17.1988 19.871C17.6487 20.472 18.9574 19.9922 19.0269 19.0384C19.1714 17.7767 19.12 17.0175 19.4105 15.8202C19.7321 14.494 18.9894 14.1299 18.277 13.9007C17.5499 13.6669 16.4908 14.3138 16.4066 16.072ZM18.0659 9.78643C18.8887 9.80276 19.5429 10.4882 19.5267 11.317C19.5105 12.1459 18.8301 12.8049 18.0072 12.7886C17.1844 12.7722 16.5302 12.0869 16.5464 11.258C16.5626 10.4291 17.243 9.77012 18.0659 9.78643Z" fill="#2B2A29"/>
<path fill-rule="evenodd" clip-rule="evenodd" d="M12.4569 12.6639C12.664 11.4524 12.8491 10.8457 14.1098 10.6753C15.3552 10.6733 15.7042 11.4887 15.8609 12.5882C15.974 13.9955 15.9164 15.4355 15.6311 16.81C15.3401 18.1348 14.9153 19.4349 14.212 20.6148C13.6722 21.4515 12.9945 22.0329 11.9716 22.1498C10.7989 22.2235 9.59506 21.7239 8.59806 21.151L8.5026 21.0943L8.40862 21.0368L8.31657 20.9786L8.22653 20.9199L8.1386 20.8607L8.05271 20.801L7.9704 20.7418L7.73707 20.5627C6.90294 19.8534 6.32157 19.0409 6.0964 17.9652C5.9495 16.9721 6.27631 16.1409 6.95509 15.3541C7.73961 14.4446 9.5459 13.8391 10.296 14.871C10.7393 15.5102 11.0386 17.8995 11.9487 17.8748C12.7022 17.7009 12.5719 16.1518 12.5607 15.5993C12.5313 14.6182 12.3232 13.6486 12.4569 12.6639Z" fill="#2B2A29"/>
<path fill-rule="evenodd" clip-rule="evenodd" d="M21.1604 11.6214C21.3783 11.0906 21.2763 10.5781 21.6865 10.122C22.169 9.5854 22.8842 9.30997 23.6554 9.52822C24.4207 9.83672 24.5483 10.2906 24.1759 11.0154C23.9941 11.3692 23.8421 11.7572 23.7046 12.1907C23.5452 12.6928 23.6783 12.9984 24.2927 13.1705C25.6472 13.5998 25.1193 15.1736 23.746 15.1139C23.1737 15.0891 23.0024 15.4797 22.9332 15.9286C22.8116 16.7182 22.8136 17.5869 22.8576 18.1629C22.9403 19.2442 22.815 19.718 22.0145 19.8552C20.441 20.1251 19.7816 18.8402 19.7653 17.667C19.7552 16.935 19.9807 15.9866 20.2534 15.1049C20.4261 14.5464 19.919 14.1909 19.5626 13.966C19.0192 13.6234 19.1773 12.4331 20.2444 12.3928C20.6971 12.3759 20.8961 12.2646 21.1604 11.6214Z" fill="#2B2A29"/>
<path fill-rule="evenodd" clip-rule="evenodd" d="M26.8394 18.004L26.9285 18.0396L27.0088 18.0764L27.0883 18.1172L27.1665 18.1606L27.2425 18.2054L27.3162 18.2504L27.3868 18.2948L27.4541 18.3372L27.5175 18.3766L27.5774 18.4121L27.6337 18.4428L27.6882 18.4674L27.7437 18.4849L27.8107 18.4902L27.8968 18.4589L27.9638 18.3669L27.9806 18.2684L27.9738 18.1886L27.9563 18.1152L27.9311 18.0409L27.8981 17.9633L27.8581 17.883L27.8115 17.8004L27.7584 17.7169L27.6994 17.6338L27.6347 17.5524L27.5646 17.4745L27.4897 17.4014L27.4096 17.3349L27.3251 17.2767L27.2357 17.2287L27.1377 17.1916L26.968 17.1706L26.8074 17.206L26.6694 17.2925L26.566 17.4279L26.5216 17.604L26.5619 17.7799L26.6752 17.9155L26.8394 18.004ZM25.5064 13.1744L25.52 13.1319L25.5404 13.0771L25.5636 13.0229L25.5897 12.9687L25.6184 12.9151L25.6499 12.8621L25.6841 12.8095L25.7213 12.7573L25.761 12.7057L25.8033 12.6546L25.8482 12.6044L25.8959 12.5548L25.9458 12.5061L25.9986 12.4581L26.0534 12.411L26.1094 12.366L26.2816 12.2423L26.4686 12.1282L26.6704 12.0236L26.8861 11.929L27.1141 11.8456L27.3533 11.7735L27.6018 11.7139L27.8589 11.6671L28.1228 11.6338L28.3924 11.6148L28.6664 11.6104L28.9436 11.6212L29.2224 11.648L29.5017 11.6911L29.7802 11.7513L30.0566 11.8289L30.3295 11.9245L30.5979 12.0388L30.8603 12.1722L31.1158 12.325L31.3627 12.4979L31.6003 12.6917L31.8271 12.9066L32.042 13.1433L32.2438 13.4024L32.4314 13.6845L32.6036 13.9904L32.7593 14.3206L32.897 14.6757L33.0157 15.0567L33.114 15.4643L33.1913 15.9004L33.2097 16.0376L33.226 16.1771L33.2396 16.317L33.2507 16.4572L33.259 16.5979L33.265 16.7389L33.2685 16.8803L33.2694 17.0218L33.2677 17.1636L33.2636 17.3057L33.2571 17.4479L33.2484 17.5902L33.2371 17.7326L33.2236 17.8748L33.2076 18.0173L33.1897 18.1594L33.1692 18.3015L33.1466 18.4436L33.1217 18.5854L33.0948 18.7269L33.0656 18.8683L33.0343 19.0093L33.0009 19.1499L32.9655 19.2899L32.928 19.4297L32.8885 19.5689L32.8469 19.7076L32.8035 19.8456L32.758 19.9831L32.7108 20.1199L32.6615 20.256L32.6108 20.3908L32.5571 20.5253L32.5028 20.6535L32.4471 20.7761L32.3905 20.8929L32.3326 21.004L32.2738 21.1097L32.2138 21.2097L32.153 21.3044L32.0911 21.3936L32.0284 21.4774L31.9645 21.5561L31.9 21.6294L31.8345 21.6978L31.7682 21.761L31.7008 21.8194L31.6328 21.8727L31.5635 21.9216L31.4934 21.9656L31.4223 22.0052L31.3502 22.0402L31.2769 22.0708L31.2024 22.0969L31.1268 22.1187L31.0501 22.1362L30.9719 22.1495L30.8925 22.1584L30.8117 22.163L30.7297 22.1633L30.6463 22.1595L30.5616 22.1512L30.4756 22.139L30.3882 22.1221L30.2943 22.1001L30.2024 22.0743L30.1123 22.045L30.0239 22.0124L29.9368 21.9767L29.8513 21.938L29.7671 21.8965L29.6839 21.8523L29.6016 21.8057L29.5204 21.757L29.4399 21.7062L29.3604 21.6534L29.2811 21.5989L29.2024 21.543L29.1241 21.4858L29.046 21.4274L28.9678 21.3681L28.8899 21.308C28.0702 20.675 26.9285 20.3543 25.9341 20.1314C25.071 19.9421 23.964 19.829 23.527 18.4897C23.2304 17.0511 23.8327 16.2431 24.3619 15.7425C24.7676 15.3588 25.4531 15.0384 26.1694 15.1876C26.9474 15.3495 27.2913 16.0745 27.912 16.4877C28.3154 16.6796 28.5867 16.4283 28.8734 16.0502L28.9211 15.938L28.9541 15.8379L28.9779 15.7369L28.9923 15.6352L28.9973 15.5341L28.9934 15.4343L28.9805 15.3361L28.959 15.2397L28.929 15.1461L28.8912 15.0554L28.8456 14.9679L28.7929 14.8834L28.7327 14.8025L28.666 14.725L28.5925 14.6513L28.5125 14.5812L28.426 14.5151L28.3333 14.4531L28.2344 14.3953L28.1298 14.3417L28.0189 14.2927L27.9024 14.2485L27.7801 14.2092L27.6524 14.175L27.519 14.1461L27.3804 14.1228L27.2365 14.1051L27.0874 14.0934L26.9333 14.0879L26.7741 14.0887L26.6102 14.0963L26.4458 14.1102L26.3301 14.1157L26.2234 14.1085L26.1218 14.0896L26.0259 14.0596L25.9359 14.0198L25.853 13.9706L25.7774 13.9133L25.7098 13.8483L25.6505 13.777L25.6003 13.7L25.5594 13.6185L25.5283 13.5332L25.5072 13.4449L25.4964 13.3544L25.4963 13.2617L25.5064 13.1744Z" fill="#2B2A29"/>
<path fill-rule="evenodd" clip-rule="evenodd" d="M17.7157 27.449L17.7819 27.5287L17.832 27.5929L17.8808 27.6582L17.9279 27.7243L17.9734 27.7906L18.0169 27.8577L18.0589 27.9254L18.0989 27.9936L18.1372 28.0623L18.1737 28.1316L18.2084 28.2016L18.2412 28.272L18.2722 28.3429L18.3013 28.4144L18.3286 28.4865L18.3539 28.5591L18.3774 28.6318L18.4097 28.7436L18.4385 28.8559L18.464 28.9685L18.4859 29.0813L18.5043 29.1945L18.5193 29.3076L18.5308 29.4209L18.5389 29.5339L18.5434 29.6468L18.5445 29.7595L18.5421 29.8719L18.5363 29.9836L18.527 30.095L18.5142 30.2054L18.498 30.3153L18.4783 30.4242L18.4551 30.5323L18.4284 30.6394L18.3982 30.7454L18.3647 30.85L18.3276 30.9535L18.2872 31.0554L18.2432 31.1559L18.196 31.2548L18.145 31.3522L18.0908 31.4477L18.033 31.5414L17.9719 31.6331L17.9072 31.723L17.8391 31.8106L17.7676 31.8961L17.6925 31.9792L17.6235 32.0505L17.5514 32.12L17.4765 32.1877L17.3991 32.2533L17.3191 32.317L17.2366 32.3785L17.1518 32.438L17.0649 32.4952L16.9758 32.5503L16.885 32.6029L16.7922 32.6533L16.6979 32.7012L16.6019 32.7466L16.5045 32.7896L16.4059 32.8298L16.3062 32.8675L16.2053 32.9025L16.1036 32.9348L16.0011 32.9642L15.898 32.9908L15.7944 33.0145L15.6905 33.0352L15.5863 33.053L15.4821 33.0678L15.3777 33.0794L15.2737 33.0878L15.1698 33.0931L15.0665 33.0952L14.9635 33.094L14.8613 33.0895L14.7599 33.0817L14.6594 33.0703L14.5653 33.0566L14.4715 33.0401L14.3784 33.0206L14.2862 32.9983L14.1944 32.9731L14.1036 32.945L14.0136 32.9141L13.9246 32.8803L13.8365 32.8437L13.7498 32.8043L13.664 32.7621L13.5796 32.7169L13.4965 32.6691L13.4148 32.6182L13.3346 32.5647L13.2559 32.5082L13.1787 32.449L13.1035 32.387L13.0299 32.3222L12.9581 32.2545L12.8883 32.184L12.8204 32.1108L12.7547 32.0348L12.691 31.9558L12.6293 31.8742L12.5703 31.7897L12.5133 31.7024L12.4589 31.6122L12.4068 31.5193L12.3574 31.4235L12.3106 31.3248L12.2672 31.2247L12.1985 31.0371L12.1495 30.8541L12.1185 30.6748L12.1047 30.4992L12.107 30.3278L12.1244 30.1609L12.1562 29.9988L12.2017 29.8419L12.2597 29.6906L12.3298 29.5455L12.4108 29.407L12.5021 29.2754L12.6028 29.1515L12.712 29.0358L12.8286 28.9288L12.952 28.8308L13.081 28.7427L13.2148 28.6649L13.3524 28.5978L13.493 28.5418L13.6353 28.4976L13.7785 28.4654L13.9219 28.4458L14.0642 28.4389L14.2046 28.4454L14.3424 28.4654L14.4769 28.4994L14.6073 28.5477L14.733 28.611L14.8534 28.6895L14.9678 28.7843L15.1357 28.9577C15.5093 28.7761 15.6962 28.5492 15.6988 28.1253C15.7016 27.6938 15.5224 27.3248 15.2737 26.9807C14.949 26.5317 14.0192 25.8395 13.5514 25.5504C13.1992 26.2364 12.1381 26.6559 11.5123 25.9084C10.9509 25.2376 11.3715 24.2635 12.229 24.0271C12.7821 23.8747 13.1105 23.8354 13.7369 23.4015C14.0429 23.1895 14.4204 22.755 14.5661 22.8024C14.472 23.0911 14.4369 23.4421 14.4847 23.8754C14.5315 24.2998 14.6439 24.7498 14.8155 25.1793C15.0632 25.7994 15.4386 26.3847 15.9249 26.803C16.4204 27.2292 17.0222 27.4852 17.7157 27.449Z" fill="#2B2A29"/>
<path fill-rule="evenodd" clip-rule="evenodd" d="M24.3 21.7493C25.424 21.4786 26.2043 21.6283 26.6971 22.1165C27.1772 22.592 27.1139 23.2824 25.9515 23.3685C25.1876 23.425 24.5977 23.7518 24.22 24.1088C23.6088 24.6864 23.4009 25.4767 24.163 26.0055C24.3462 26.1202 24.4676 26.3178 24.3762 26.5496C24.082 26.935 23.4565 26.8422 23.0101 26.556C21.086 25.3228 22.0549 22.2899 24.3 21.7493Z" fill="#2B2A29"/>
<path fill-rule="evenodd" clip-rule="evenodd" d="M21.5522 27.1926C21.7593 27.922 21.3913 28.362 20.8159 28.4141C20.0424 28.4841 19.7904 27.9822 19.7021 27.2909C19.5691 26.2481 19.8555 25.6062 20.1681 24.5285C20.4127 23.6855 21.5443 23.6717 21.3817 24.6007C21.2298 25.469 21.2676 26.1902 21.5522 27.1926Z" fill="#2B2A29"/>
<path fill-rule="evenodd" clip-rule="evenodd" d="M16.8958 22.9255C16.8545 23.5896 17.2573 23.99 17.4577 24.0688C18.3295 24.4119 18.6471 23.6562 18.2863 21.975C18.1931 21.5407 18.4646 21.3305 18.8946 21.275C19.3446 21.2557 19.4568 21.3175 19.5525 21.8064C19.6719 22.4158 19.6556 23.4213 19.5846 23.9809C19.3864 25.5441 19.0483 26.3857 18.3805 26.6564C16.5201 27.4107 15.2839 25.3958 15.1086 23.806C15.0099 22.9108 15.3369 22.5481 15.7596 22.3582C16.3548 22.0906 16.9551 21.9695 16.8958 22.9255Z" fill="#2B2A29"/>
<path fill-rule="evenodd" clip-rule="evenodd" d="M21.1396 21.1574C21.7211 21.1368 22.2093 21.5951 22.2298 22.181C22.2502 22.7668 21.7952 23.2585 21.2137 23.2791C20.6321 23.2997 20.144 22.8414 20.1235 22.2556C20.1031 21.6698 20.5581 21.178 21.1396 21.1574Z" fill="#2B2A29"/>
<path fill-rule="evenodd" clip-rule="evenodd" d="M33.5249 9.34229C34.4183 9.34229 35.1425 10.0718 35.1425 10.9717C35.1425 11.8716 34.4183 12.6011 33.5249 12.6011C32.6316 12.6011 31.9074 11.8716 31.9074 10.9717C31.9074 10.0718 32.6316 9.34229 33.5249 9.34229ZM32.8626 11.8608V10.0846H33.6441C33.8013 10.0846 33.9207 10.1008 34.0024 10.1326C34.084 10.1644 34.1494 10.2206 34.1982 10.3012C34.247 10.3819 34.2713 10.4712 34.2713 10.5688C34.2713 10.6948 34.2305 10.8011 34.1497 10.8875C34.0689 10.9739 33.9441 11.0285 33.775 11.0521C33.837 11.0818 33.884 11.1114 33.9158 11.1406C33.9841 11.2032 34.0488 11.2822 34.1087 11.3771L34.4137 11.8608H34.1223L33.8891 11.4912C33.8216 11.384 33.7653 11.3025 33.7213 11.246C33.6771 11.1893 33.6375 11.15 33.6026 11.1273C33.5682 11.105 33.5326 11.0886 33.4963 11.0802C33.4702 11.0742 33.4269 11.0719 33.3666 11.0719H33.0966V11.8608H32.8626ZM33.0966 10.8685H33.5973C33.704 10.8685 33.7869 10.8571 33.8468 10.835C33.9067 10.8129 33.9521 10.7774 33.9831 10.7284C34.0141 10.6795 34.0299 10.6267 34.0299 10.5692C34.0299 10.4852 33.9999 10.4157 33.9396 10.3616C33.8793 10.3074 33.784 10.2806 33.6539 10.2806H33.0966V10.8685Z" fill="#2B2A29"/>
<path d="M12.6306 6.73415L12.9934 6.45713C13.0513 6.52445 13.1166 6.56409 13.1895 6.57534C13.2621 6.58734 13.3449 6.56756 13.437 6.51711C13.5387 6.46144 13.605 6.40087 13.6364 6.33512C13.6565 6.28985 13.6545 6.24487 13.6306 6.20055C13.6146 6.17077 13.5915 6.15095 13.5623 6.14141C13.5325 6.13339 13.479 6.13962 13.4026 6.16087C13.0469 6.26396 12.8111 6.30949 12.6947 6.29782C12.5329 6.28108 12.4134 6.20063 12.3358 6.05683C12.2655 5.92645 12.2577 5.7893 12.3117 5.64509C12.3657 5.50088 12.4994 5.37041 12.7129 5.25356C12.9163 5.1422 13.0859 5.09306 13.2208 5.10581C13.356 5.11903 13.4778 5.18079 13.5858 5.29171L13.2536 5.56329C13.2061 5.51327 13.1511 5.48475 13.0899 5.47778C13.0286 5.47084 12.9568 5.4902 12.8742 5.53538C12.77 5.59239 12.7033 5.64757 12.6738 5.70175C12.6549 5.73895 12.6546 5.77394 12.6723 5.80664C12.6875 5.83501 12.7134 5.85205 12.7503 5.85739C12.8004 5.86425 12.9431 5.83412 13.1792 5.76724C13.4153 5.7003 13.5936 5.67879 13.7143 5.70306C13.8348 5.72808 13.9291 5.8042 13.9971 5.93026C14.071 6.06741 14.078 6.21684 14.0171 6.37791C13.9565 6.53879 13.8147 6.68056 13.5911 6.80289C13.3887 6.91368 13.2059 6.96016 13.0431 6.94272C12.8807 6.92497 12.7432 6.85575 12.6306 6.73415ZM13.8808 4.46185L13.7227 4.07619L14.1357 3.90446L14.2937 4.29012L13.8808 4.46185ZM14.6137 6.25027L13.9679 4.67433L14.3808 4.5026L15.0266 6.07854L14.6137 6.25027ZM16.9285 5.46497L16.4998 5.59186L16.2567 4.75819C16.2053 4.58168 16.1626 4.4705 16.1293 4.42441C16.0954 4.37799 16.0541 4.34686 16.0039 4.33029C15.9538 4.31375 15.8995 4.3144 15.8411 4.33168C15.766 4.3539 15.7048 4.39429 15.6572 4.45288C15.6092 4.51158 15.5845 4.57822 15.5822 4.65195C15.5795 4.72635 15.605 4.85463 15.6584 5.03743L15.8741 5.77704L15.4455 5.90393L14.9683 4.26814L15.3657 4.15053L15.4357 4.3906C15.5246 4.16513 15.6768 4.02078 15.8932 3.95674C15.9881 3.92868 16.0803 3.92021 16.169 3.93108C16.2584 3.94225 16.3305 3.96828 16.3861 4.00943C16.4424 4.05101 16.4882 4.10307 16.5236 4.16622C16.5596 4.22923 16.5956 4.32353 16.6323 4.44959L16.9285 5.46497ZM18.6325 3.9344L18.2105 4.08349C18.182 3.99884 18.1381 3.9389 18.0789 3.90315C18.0198 3.86792 17.9492 3.85675 17.8665 3.87032C17.7566 3.88833 17.6748 3.94116 17.6218 4.02863C17.5687 4.11609 17.5567 4.24953 17.5858 4.42947C17.6181 4.62943 17.6742 4.76501 17.7541 4.83675C17.834 4.90853 17.9297 4.93496 18.0413 4.9167C18.1249 4.90294 18.1897 4.86738 18.235 4.81058C18.2809 4.75366 18.305 4.66484 18.308 4.54341L18.7546 4.54674C18.742 4.75513 18.6802 4.92115 18.5691 5.04477C18.458 5.16835 18.2952 5.24776 18.0801 5.28308C17.8365 5.32303 17.6292 5.27717 17.4593 5.14583C17.2888 5.01406 17.1816 4.8109 17.1371 4.53579C17.0921 4.2575 17.1302 4.02939 17.2504 3.85044C17.3708 3.67151 17.5551 3.56195 17.8035 3.52122C18.0063 3.48795 18.1749 3.50577 18.3093 3.57415C18.4432 3.6426 18.5507 3.76249 18.6325 3.9344ZM20.0975 4.4749L20.5486 4.51625C20.5041 4.68492 20.423 4.81689 20.3064 4.9125C20.1893 5.00767 20.0381 5.06256 19.8533 5.07667C19.5601 5.09905 19.3355 5.019 19.1806 4.83643C19.0578 4.68992 18.9873 4.49873 18.9695 4.26232C18.9484 3.98062 19.0049 3.75394 19.1387 3.58338C19.2724 3.41232 19.4512 3.31852 19.6745 3.30144C19.9249 3.28234 20.129 3.35076 20.2868 3.50676C20.4441 3.66274 20.5328 3.91351 20.5522 4.25903L19.4368 4.34416C19.4501 4.47712 19.4937 4.57809 19.5681 4.64713C19.6419 4.71613 19.7304 4.74676 19.8323 4.73896C19.9022 4.73365 19.9592 4.71004 20.0036 4.6682C20.0484 4.62636 20.0795 4.56196 20.0975 4.4749ZM20.0892 4.01764C20.0762 3.88738 20.0357 3.79056 19.9672 3.72773C19.8986 3.66432 19.8191 3.63629 19.7281 3.64329C19.631 3.65067 19.5535 3.69287 19.4955 3.76921C19.4375 3.84558 19.4139 3.94565 19.4243 4.06839L20.0892 4.01764ZM23.3409 4.83106L23.2826 5.24411L21.7296 5.02195C21.7684 4.86715 21.84 4.72585 21.9437 4.59745C22.0474 4.46909 22.24 4.30637 22.5203 4.10924C22.7464 3.95025 22.8865 3.84032 22.9411 3.78015C23.0149 3.6967 23.0584 3.61 23.0712 3.51946C23.0852 3.41976 23.0696 3.33955 23.0239 3.27829C22.9787 3.21703 22.9093 3.18006 22.8162 3.16673C22.7237 3.15348 22.6465 3.17118 22.5836 3.2197C22.5214 3.26775 22.4771 3.35652 22.4501 3.48595L22.014 3.37822C22.0751 3.13592 22.1823 2.97098 22.3363 2.88347C22.4902 2.79655 22.671 2.7677 22.8793 2.7975C23.1074 2.83012 23.2778 2.91811 23.3911 3.06089C23.5038 3.20367 23.5471 3.36751 23.5211 3.55231C23.5063 3.65746 23.4734 3.75453 23.4228 3.84464C23.3723 3.93418 23.2991 4.02494 23.2032 4.11734C23.1401 4.17914 23.0287 4.26435 22.8706 4.37394C22.7119 4.48337 22.611 4.55634 22.5678 4.59386C22.5242 4.63074 22.4882 4.66816 22.4594 4.70496L23.3409 4.83106ZM24.8365 3.14943C25.0571 3.19955 25.2116 3.31827 25.3005 3.50573C25.4064 3.72737 25.4107 4.05663 25.3131 4.49248C25.2156 4.92772 25.0708 5.22376 24.8792 5.37999C24.7205 5.50893 24.5312 5.54843 24.3106 5.4983C24.089 5.44796 23.9295 5.32135 23.8323 5.11859C23.7351 4.91575 23.736 4.59322 23.8348 4.15206C23.9317 3.71894 24.0763 3.42403 24.2679 3.26775C24.4266 3.1388 24.6159 3.0993 24.8365 3.14943ZM24.7547 3.51475C24.7028 3.50293 24.6523 3.50942 24.6044 3.53446C24.5559 3.55878 24.5105 3.61248 24.4685 3.69553C24.4134 3.80254 24.3555 3.99146 24.2951 4.26115C24.2346 4.53144 24.2063 4.71974 24.2103 4.82671C24.2141 4.93367 24.2325 5.00856 24.2652 5.05139C24.298 5.09413 24.3404 5.12121 24.3923 5.13301C24.4443 5.1448 24.4948 5.13831 24.5433 5.11341C24.5911 5.08891 24.6366 5.03528 24.6785 4.95222C24.7335 4.84625 24.7913 4.6579 24.8518 4.38767C24.9122 4.11793 24.9405 3.92958 24.9365 3.82262C24.9326 3.71565 24.9144 3.64022 24.8816 3.59748C24.849 3.55414 24.8067 3.52654 24.7547 3.51475ZM26.8789 3.7932C27.0904 3.87379 27.227 4.01296 27.2892 4.21112C27.3634 4.4454 27.3222 4.77206 27.1653 5.18999C27.0087 5.60735 26.8244 5.8802 26.6131 6.00809C26.4381 6.11352 26.2452 6.12609 26.0337 6.04557C25.8212 5.96464 25.6808 5.81696 25.6125 5.60253C25.5443 5.38801 25.5897 5.06873 25.7484 4.64574C25.9043 4.23044 26.0882 3.95864 26.2994 3.83072C26.4744 3.72525 26.6674 3.71269 26.8789 3.7932ZM26.7474 4.14352C26.6976 4.12456 26.6467 4.12392 26.5958 4.14198C26.5445 4.15928 26.4921 4.20608 26.4391 4.28246C26.3696 4.3807 26.2862 4.55966 26.1892 4.81828C26.0919 5.07744 26.038 5.25997 26.0271 5.36644C26.0162 5.4729 26.024 5.54966 26.0505 5.59662C26.0771 5.64356 26.1153 5.67631 26.1652 5.69526C26.215 5.71421 26.2659 5.7149 26.3173 5.69701C26.368 5.67945 26.4204 5.63275 26.4735 5.55631C26.5425 5.45913 26.6258 5.28068 26.723 5.02158C26.8201 4.76293 26.8741 4.58033 26.8849 4.47391C26.8958 4.36741 26.8882 4.29016 26.8617 4.24322C26.8353 4.19572 26.7973 4.16253 26.7474 4.14352ZM27.9152 4.71262L28.1088 4.3439L29.4636 5.06584L29.3111 5.35621C29.1411 5.40737 28.9443 5.50574 28.7197 5.65116C28.4956 5.79686 28.2916 5.96994 28.1086 6.17091C27.9256 6.37192 27.7862 6.56464 27.6908 6.74857L27.3103 6.5458C27.4683 6.26144 27.6812 5.99892 27.9495 5.75849C28.218 5.51881 28.5068 5.32956 28.8165 5.19295L27.9152 4.71262Z" fill="#2B2A29"/>
<path d="M4.8441 35.5796L5.06129 35.7898L5.16876 35.677C5.28868 35.5513 5.39171 35.4702 5.47742 35.434C5.56357 35.3975 5.66067 35.3945 5.76918 35.4248C5.87819 35.4556 5.98746 35.5235 6.09701 35.6295C6.20896 35.7378 6.30298 35.8611 6.37864 35.9988L6.06682 36.2249C6.0172 36.1483 5.9631 36.0811 5.90399 36.024C5.8459 35.9678 5.79163 35.9411 5.74079 35.9435C5.68987 35.946 5.62764 35.9854 5.5544 36.0622L5.45286 36.1686L5.74724 36.4535L5.45071 36.7644L5.15635 36.4796L4.02794 37.6628L3.63638 37.2839L4.76477 36.1007L4.54757 35.8905L4.8441 35.5796ZM4.92752 38.5113L4.52155 38.1481L5.88739 36.5989L6.26368 36.9356L6.06982 37.1555C6.22621 37.1094 6.34457 37.0934 6.42496 37.1074C6.5053 37.1214 6.57808 37.1581 6.6438 37.2169C6.73663 37.2999 6.80321 37.4058 6.84398 37.5339L6.40314 37.7784C6.37393 37.6723 6.32998 37.5929 6.27119 37.5403C6.21392 37.4891 6.15145 37.4617 6.08436 37.4577C6.01674 37.4541 5.93563 37.4831 5.84013 37.5453C5.74456 37.6075 5.5806 37.7705 5.34855 38.0337L4.92752 38.5113ZM7.04719 39.3764L7.42584 39.7789C7.25079 39.8968 7.07169 39.9517 6.88908 39.9447C6.70645 39.9367 6.52474 39.8646 6.34487 39.728C6.05949 39.5114 5.91838 39.2567 5.9225 38.9649C5.92729 38.7319 6.01528 38.5004 6.1874 38.2704C6.39253 37.9962 6.6248 37.8351 6.88277 37.7877C7.14116 37.7397 7.37906 37.7987 7.59636 37.9637C7.84008 38.1487 7.97169 38.3762 7.99146 38.6461C8.0106 38.9157 7.89166 39.2161 7.63409 39.5471L6.54858 38.7229C6.45472 38.855 6.41399 38.9823 6.42692 39.1054C6.43931 39.2282 6.49563 39.3275 6.59475 39.4029C6.66281 39.4545 6.73371 39.4792 6.80745 39.4769C6.88167 39.4749 6.96138 39.4413 7.04719 39.3764ZM7.40406 38.9525C7.4959 38.8231 7.53609 38.702 7.5237 38.5892C7.51167 38.476 7.46143 38.3862 7.37279 38.3189C7.27838 38.2472 7.17411 38.223 7.06028 38.2458C6.94648 38.2685 6.84526 38.3408 6.75687 38.4611L7.40406 38.9525ZM7.63579 39.8895L8.14129 40.116C8.10408 40.2177 8.10051 40.3109 8.13136 40.3956C8.1613 40.4805 8.2307 40.5576 8.33805 40.6269C8.45658 40.7033 8.55941 40.7389 8.6473 40.7339C8.70695 40.7289 8.75333 40.7004 8.78606 40.6488C8.80813 40.6141 8.81556 40.5778 8.80849 40.5408C8.79955 40.5042 8.76156 40.4505 8.6943 40.381C8.37678 40.0601 8.19033 39.834 8.1344 39.7023C8.05718 39.519 8.07211 39.3437 8.17862 39.1762C8.27514 39.0243 8.41549 38.9356 8.59946 38.9088C8.78353 38.8822 8.99985 38.949 9.24854 39.1094C9.48545 39.2622 9.63687 39.4152 9.70251 39.5673C9.76778 39.72 9.77397 39.8868 9.72008 40.0678L9.23829 39.8708C9.26337 39.7906 9.26127 39.7149 9.2327 39.6451C9.20414 39.5753 9.14149 39.5097 9.04527 39.4476C8.92403 39.3694 8.82655 39.3303 8.75199 39.3303C8.70163 39.3318 8.66444 39.3521 8.6402 39.3902C8.6192 39.4233 8.61642 39.461 8.63237 39.5037C8.65451 39.5614 8.77008 39.6967 8.97919 39.9106C9.18831 40.1245 9.31569 40.303 9.36079 40.4467C9.40507 40.5905 9.37988 40.7364 9.28657 40.8831C9.18508 41.0428 9.03124 41.138 8.82531 41.1671C8.6199 41.1966 8.38687 41.1276 8.12653 40.9597C7.89068 40.8076 7.73437 40.6389 7.65735 40.4541C7.58089 40.2696 7.57332 40.0815 7.63579 39.8895ZM11.1274 39.3184L10.6552 40.2649C10.9068 40.1562 11.1428 40.1572 11.3618 40.2681C11.4745 40.3251 11.5656 40.3973 11.6352 40.4847C11.7044 40.5726 11.7459 40.6598 11.7593 40.7485C11.773 40.8367 11.7684 40.9244 11.7454 41.0118C11.7231 41.0996 11.6703 41.2263 11.5875 41.3921L11.0466 42.4765L10.5614 42.2309L11.0484 41.2547C11.1451 41.0609 11.1971 40.9331 11.2049 40.8715C11.2121 40.8096 11.1998 40.7513 11.1677 40.6971C11.1359 40.6423 11.0846 40.5969 11.0132 40.5607C10.9317 40.5195 10.8494 40.5024 10.7652 40.5097C10.6813 40.5163 10.605 40.5522 10.5357 40.6169C10.4662 40.6808 10.3927 40.791 10.3153 40.9461L9.85319 41.8724L9.36807 41.6268L10.6423 39.0728L11.1274 39.3184ZM15.0889 43.4607L14.66 43.7803C14.5254 43.6609 14.4044 43.5143 14.2976 43.3406C14.1602 43.4102 14.0222 43.4514 13.8851 43.4645C13.7479 43.4777 13.5937 43.4605 13.4217 43.4129C13.0816 43.3189 12.8519 43.1512 12.7326 42.9105C12.6401 42.7248 12.6207 42.5345 12.6737 42.3401C12.7219 42.1631 12.8176 42.0183 12.9611 41.9063C13.1041 41.794 13.2941 41.7148 13.5307 41.6685C13.4676 41.5309 13.4259 41.4049 13.4064 41.2905C13.3862 41.1759 13.3888 41.0738 13.4134 40.9833C13.4589 40.8165 13.5638 40.693 13.7279 40.6135C13.8914 40.5339 14.0965 40.5278 14.3411 40.5954C14.5767 40.6606 14.7448 40.7727 14.8449 40.9308C14.9448 41.0895 14.9706 41.256 14.9227 41.4318C14.8923 41.5435 14.8309 41.6403 14.738 41.7223C14.6452 41.8042 14.4824 41.8813 14.2492 41.9528L14.4866 42.5669C14.5529 42.4997 14.6196 42.4057 14.687 42.2864L15.133 42.5249C15.0397 42.6813 14.9644 42.7943 14.908 42.8629C14.8522 42.9317 14.7967 42.9874 14.7422 43.0289C14.7857 43.1003 14.8451 43.1815 14.9201 43.2733C14.9951 43.3651 15.0513 43.4276 15.0889 43.4607ZM14.0707 41.5646L14.2414 41.4938C14.3674 41.4411 14.4411 41.3745 14.4629 41.2943C14.4815 41.2263 14.4724 41.1617 14.435 41.1003C14.3984 41.0384 14.3374 40.996 14.252 40.9724C14.1692 40.9495 14.0985 40.9527 14.04 40.9814C13.9819 41.0109 13.9451 41.0531 13.93 41.1082C13.9122 41.1737 13.9302 41.2635 13.9838 41.3784L14.0707 41.5646ZM13.7089 42.0828C13.5724 42.1112 13.4623 42.1608 13.3788 42.2309C13.296 42.3011 13.2419 42.3814 13.2174 42.4712C13.1863 42.5854 13.1977 42.6893 13.252 42.7816C13.3055 42.8744 13.3944 42.9376 13.5186 42.9719C13.6001 42.9945 13.6835 43.0003 13.7676 42.9883C13.8523 42.9766 13.9491 42.9454 14.0589 42.8944L13.7089 42.0828ZM16.2872 43.5311L16.8401 43.5128C16.8507 43.6205 16.8879 43.7061 16.9523 43.7687C17.0161 43.8319 17.1119 43.8709 17.2385 43.886C17.3782 43.9027 17.4862 43.8895 17.5631 43.8464C17.6146 43.8157 17.644 43.7696 17.6511 43.7088C17.6559 43.6679 17.6469 43.6319 17.6245 43.6018C17.6006 43.5728 17.5432 43.5411 17.4526 43.5082C17.0278 43.359 16.7622 43.2375 16.6548 43.1435C16.5059 43.0125 16.4435 42.8483 16.4667 42.6507C16.4878 42.4717 16.5757 42.3301 16.7297 42.2252C16.8837 42.1203 17.1073 42.0854 17.4005 42.1204C17.6799 42.1538 17.8824 42.2249 18.0073 42.333C18.1322 42.4417 18.21 42.5889 18.2399 42.7755L17.7211 42.81C17.7089 42.7268 17.6742 42.6597 17.6183 42.6094C17.5623 42.5592 17.4776 42.5276 17.3641 42.5141C17.2211 42.497 17.1164 42.5046 17.0494 42.5374C17.0048 42.5609 16.9801 42.5955 16.9747 42.6404C16.9701 42.6794 16.984 42.7145 17.0169 42.746C17.0618 42.7882 17.2244 42.8592 17.5052 42.9597C17.786 43.0603 17.9779 43.1649 18.0808 43.2744C18.1829 43.3844 18.2233 43.5266 18.2029 43.6997C18.1808 43.888 18.0836 44.0412 17.9109 44.1579C17.7388 44.2748 17.4993 44.3151 17.1923 44.2785C16.9142 44.2452 16.7005 44.1621 16.5511 44.0297C16.4024 43.8973 16.3142 43.7313 16.2872 43.5311ZM18.6303 42.3418L19.1293 42.3588L19.1198 42.6415C19.3061 42.4301 19.5229 42.3284 19.7705 42.3368C19.9018 42.3412 20.0151 42.3725 20.1097 42.4302C20.2049 42.4881 20.2813 42.5733 20.339 42.6857C20.4332 42.5784 20.5336 42.4993 20.6398 42.4483C20.7459 42.3974 20.8584 42.3739 20.9772 42.3779C21.1277 42.3831 21.2541 42.418 21.357 42.4834C21.4592 42.5489 21.5341 42.6419 21.5815 42.7634C21.6162 42.8524 21.6299 42.996 21.6233 43.1935L21.5788 44.5155L21.0362 44.497L21.0759 43.3153C21.0828 43.1099 21.0687 42.9769 21.0331 42.9165C20.9856 42.8369 20.909 42.795 20.8047 42.7914C20.7288 42.7889 20.6561 42.8097 20.5872 42.854C20.5189 42.8989 20.4677 42.9657 20.435 43.0545C20.4022 43.1439 20.383 43.2857 20.3764 43.4806L20.343 44.4733L19.8004 44.4549L19.8385 43.3218C19.8453 43.1209 19.8397 42.9902 19.8225 42.9317C19.8054 42.8725 19.7771 42.8276 19.7371 42.7977C19.6978 42.7678 19.6428 42.7518 19.5735 42.7495C19.4897 42.7466 19.4137 42.7667 19.3455 42.8096C19.2766 42.8532 19.2269 42.9167 19.195 43.0015C19.163 43.0864 19.1437 43.2281 19.1371 43.4263L19.1033 44.4311L18.5607 44.4126L18.6303 42.3418ZM21.915 43.374C21.9013 43.1922 21.932 43.0131 22.0081 42.8364C22.0841 42.659 22.2002 42.52 22.3561 42.418C22.5119 42.3159 22.6896 42.2569 22.8905 42.2415C23.2007 42.2177 23.462 42.2997 23.6756 42.4875C23.8892 42.676 24.0073 42.9245 24.0308 43.235C24.0545 43.5481 23.9741 43.8152 23.7901 44.0362C23.6055 44.2571 23.3616 44.3793 23.058 44.4026C22.8703 44.417 22.6879 44.3877 22.5109 44.3152C22.3344 44.2427 22.1952 44.1272 22.0938 43.9682C21.9923 43.8098 21.933 43.6115 21.915 43.374ZM22.4744 43.3604C22.4899 43.5655 22.5499 43.719 22.6542 43.8204C22.7594 43.9224 22.882 43.9677 23.0236 43.9569C23.1645 43.9461 23.279 43.8825 23.3662 43.7657C23.4535 43.6496 23.4895 43.4874 23.4738 43.2797C23.4585 43.0773 23.3987 42.9251 23.2949 42.8237C23.1912 42.7215 23.0684 42.6762 22.9276 42.6871C22.786 42.6979 22.6715 42.7614 22.583 42.8784C22.495 42.9945 22.4589 43.1554 22.4744 43.3604ZM24.2077 43.1384C24.1744 42.9592 24.1856 42.7777 24.242 42.5937C24.2984 42.4091 24.3986 42.2582 24.5425 42.1395C24.6864 42.021 24.8567 41.9428 25.0546 41.9054C25.3604 41.8476 25.629 41.9004 25.8617 42.0636C26.0945 42.2274 26.2388 42.4614 26.2958 42.7675C26.3533 43.0761 26.3023 43.3505 26.1434 43.5904C25.9838 43.8304 25.7546 43.9786 25.4554 44.0352C25.2703 44.0701 25.0859 44.061 24.902 44.0084C24.7188 43.9558 24.5679 43.8563 24.4499 43.7094C24.3319 43.5631 24.2513 43.3725 24.2077 43.1384ZM24.7623 43.0634C24.8 43.2655 24.8762 43.4115 24.9909 43.5008C25.1065 43.5907 25.2333 43.6222 25.3729 43.5959C25.5118 43.5696 25.6187 43.4938 25.6928 43.3682C25.7669 43.2432 25.7851 43.0779 25.747 42.8732C25.7099 42.6738 25.6339 42.529 25.5198 42.4396C25.4055 42.3495 25.2787 42.318 25.1398 42.3442C25.0002 42.3706 24.8933 42.4463 24.818 42.5722C24.7432 42.6974 24.7247 42.8613 24.7623 43.0634ZM27.2433 41.3853L27.3592 41.8045L27.0003 41.9051L27.2237 42.7134C27.269 42.8775 27.2986 42.9721 27.3131 42.9971C27.3275 43.022 27.349 43.0401 27.3788 43.0512C27.4077 43.0617 27.4395 43.0624 27.4744 43.0526C27.5234 43.0389 27.5889 43.0026 27.6717 42.9427L27.829 43.3406C27.722 43.4273 27.5918 43.4921 27.4378 43.5353C27.3436 43.5617 27.2546 43.5694 27.17 43.5586C27.0854 43.5478 27.0185 43.5216 26.9696 43.4808C26.9197 43.4395 26.8766 43.3778 26.8385 43.2945C26.8107 43.236 26.7706 43.1132 26.7187 42.9254L26.4773 42.0518L26.2368 42.1192L26.1209 41.7L26.3614 41.6326L26.252 41.2365L26.6889 40.7783L26.8845 41.4859L27.2433 41.3853ZM27.6407 40.403L28.0175 41.3919C28.1071 41.1313 28.2668 40.9563 28.4956 40.8678C28.6134 40.8223 28.7277 40.803 28.8386 40.8101C28.9498 40.8176 29.0418 40.8455 29.1159 40.8952C29.1898 40.9444 29.2511 41.0069 29.2999 41.0829C29.3492 41.1585 29.4066 41.2832 29.4727 41.4565L29.9044 42.5895L29.3975 42.7855L29.0089 41.7655C28.9317 41.563 28.8728 41.4382 28.8329 41.3909C28.7923 41.3439 28.7412 41.3138 28.6798 41.3012C28.6182 41.288 28.5503 41.2956 28.4757 41.3245C28.3906 41.3574 28.3226 41.4072 28.2713 41.4748C28.2197 41.5418 28.1946 41.6228 28.1955 41.718C28.1956 41.8127 28.227 41.9417 28.2887 42.1038L28.6575 43.0716L28.1506 43.2676L27.1338 40.599L27.6407 40.403ZM29.4436 40.2196L29.236 39.7577L29.7307 39.5322L29.9382 39.9941L29.4436 40.2196ZM30.4059 42.3618L29.5579 40.4742L30.0526 40.2487L30.9006 42.1363L30.4059 42.3618ZM32.1221 40.7612L32.6366 40.5641C32.6773 40.7722 32.6585 40.9599 32.5819 41.1269C32.5043 41.2937 32.3682 41.4349 32.1739 41.5496C31.8655 41.7314 31.5779 41.7646 31.3121 41.6485C31.1005 41.5543 30.9222 41.3834 30.7777 41.1348C30.6055 40.8386 30.5473 40.5606 30.6032 40.3025C30.6587 40.0438 30.8043 39.8454 31.0391 39.7069C31.3024 39.5515 31.5615 39.5167 31.8165 39.6022C32.0708 39.6882 32.3002 39.9144 32.5044 40.2813L31.3314 40.9732C31.4162 41.1113 31.5173 41.1982 31.635 41.2336C31.7523 41.2693 31.865 41.2552 31.9722 41.192C32.0457 41.1486 32.0956 41.0922 32.1218 41.0228C32.1486 40.953 32.1485 40.866 32.1221 40.7612ZM31.8711 40.2662C31.7879 40.1311 31.6924 40.0471 31.5843 40.0152C31.4758 39.9828 31.3742 39.9949 31.2784 40.0514C31.1764 40.1116 31.1141 40.1993 31.0911 40.3139C31.0682 40.4284 31.0955 40.5503 31.1717 40.6788L31.8711 40.2662ZM34.2406 40.2303L32.4839 37.9855L32.9103 37.6469L33.5441 38.4568C33.5577 38.2012 33.654 38.0019 33.8345 37.8585C34.0311 37.7024 34.2495 37.6451 34.4906 37.6866C34.7317 37.7281 34.9575 37.8835 35.1681 38.1525C35.3857 38.4305 35.4879 38.6967 35.4745 38.9514C35.4606 39.2055 35.3598 39.4076 35.1725 39.5563C35.0801 39.6297 34.9706 39.6777 34.8436 39.7014C34.7162 39.7246 34.585 39.717 34.449 39.6776L34.6358 39.9164L34.2406 40.2303ZM33.9995 39.0517C34.1317 39.2205 34.2562 39.3248 34.3721 39.3633C34.5362 39.4194 34.6793 39.399 34.8022 39.3013C34.8966 39.2264 34.9451 39.1218 34.9482 38.9872C34.9508 38.8529 34.8834 38.6981 34.7465 38.523C34.6005 38.3364 34.4617 38.2289 34.3301 38.1995C34.1986 38.1701 34.0807 38.1967 33.9759 38.28C33.8732 38.3615 33.8197 38.4693 33.8147 38.6037C33.8097 38.7382 33.8711 38.8876 33.9995 39.0517ZM35.4812 37.4062L35.0665 37.6859C34.9674 37.5013 34.9334 37.3265 34.9643 37.162C34.9951 36.9974 35.1068 36.8218 35.2992 36.6355C35.474 36.4663 35.6242 36.3606 35.7497 36.3193C35.8747 36.2785 35.9856 36.2727 36.0817 36.3033C36.1777 36.334 36.3075 36.4344 36.4714 36.6062L36.9051 37.0722C37.0301 37.2031 37.1287 37.294 37.2006 37.3444C37.2725 37.3947 37.3595 37.4389 37.4615 37.4766L37.0729 37.8529C37.0382 37.8367 36.9887 37.8107 36.9254 37.7742C36.8968 37.7567 36.8774 37.7459 36.8676 37.7415C36.8642 37.8723 36.8399 37.9909 36.7953 38.0977C36.7507 38.2046 36.6857 38.2997 36.5996 38.3832C36.4476 38.5303 36.2878 38.6047 36.1206 38.6062C35.9538 38.608 35.8093 38.5449 35.6875 38.4173C35.6074 38.3333 35.5555 38.2387 35.5324 38.1338C35.5097 38.0293 35.5169 37.9245 35.5558 37.8194C35.5943 37.7147 35.6688 37.5835 35.7794 37.4257C35.9293 37.2141 36.0253 37.0584 36.0674 36.9604L36.0294 36.9206C35.9562 36.8439 35.8854 36.8072 35.8166 36.81C35.7479 36.8138 35.6618 36.8658 35.5585 36.9658C35.4885 37.0336 35.4475 37.1001 35.4355 37.1662C35.4225 37.2322 35.4383 37.3121 35.4812 37.4062ZM36.3118 37.2166C36.2778 37.2818 36.2175 37.3789 36.1309 37.5081C36.0448 37.6367 35.9953 37.7288 35.9831 37.7832C35.9673 37.8695 35.9856 37.9404 36.0391 37.9965C36.0922 38.0522 36.158 38.0798 36.2374 38.0805C36.3168 38.0811 36.3879 38.051 36.4513 37.9897C36.5217 37.9215 36.5669 37.8325 36.5868 37.7237C36.5996 37.642 36.5899 37.5685 36.5552 37.5024C36.5331 37.4591 36.4771 37.3897 36.3869 37.2953L36.3118 37.2166ZM38.1142 36.7953L37.738 37.1898L36.2546 35.7545L36.6033 35.3889L36.8138 35.5926C36.7742 35.4334 36.7629 35.3136 36.78 35.2333C36.7971 35.1529 36.8363 35.0811 36.8972 35.0173C36.9831 34.9271 37.0907 34.8642 37.2194 34.8281L37.4448 35.2814C37.3383 35.3067 37.2579 35.3478 37.2034 35.4049C37.1504 35.4606 37.1207 35.5224 37.1141 35.5898C37.108 35.6577 37.1335 35.7404 37.1915 35.839C37.2496 35.9376 37.4048 36.109 37.6568 36.3528L38.1142 36.7953Z" fill="#2B2A29"/>
</svg>
