<svg width="64" height="64" viewBox="0 0 64 64" fill="none" xmlns="http://www.w3.org/2000/svg">
<rect width="64" height="64" rx="20" fill="white"/>
<g clip-path="url(#clip0_0_1)">
<path d="M45.2888 34.8061C44.6558 34.0068 44.8369 33.6511 45.2888 32.9366C45.2969 32.9284 50.5222 25.708 51.0606 23.2593L51.0638 23.2576C51.3314 22.3653 51.0638 21.7095 49.7702 21.7095H45.4894C44.3997 21.7095 43.8972 22.2723 43.628 22.902C43.628 22.902 41.4485 28.1191 38.3652 31.501C37.3701 32.4782 36.91 32.7914 36.3668 32.7914C36.0993 32.7914 35.6833 32.4782 35.6833 31.5858V23.2576C35.6833 22.1875 35.3782 21.7095 34.476 21.7095H27.745C27.0614 21.7095 26.6552 22.2087 26.6552 22.6736C26.6552 23.6883 28.1969 23.9216 28.3568 26.7765V32.9708C28.3568 34.3281 28.1104 34.5777 27.5639 34.5777C26.1087 34.5777 22.5768 29.3394 20.4838 23.3441C20.0612 22.1809 19.6485 21.7111 18.5506 21.7111H14.2682C13.0463 21.7111 12.8 22.2739 12.8 22.9036C12.8 24.0162 14.2552 29.5482 19.5669 36.8568C23.107 41.8455 28.0925 44.5487 32.6277 44.5487C35.3537 44.5487 35.6865 43.9483 35.6865 42.9157C35.6865 38.1488 35.4402 37.6986 36.8056 37.6986C37.4386 37.6986 38.5284 38.0118 41.0733 40.4181C43.982 43.2713 44.46 44.5487 46.0882 44.5487H50.3689C51.5891 44.5487 52.2074 43.9483 51.8518 42.764C51.0377 40.2729 45.5367 35.1487 45.2888 34.8061Z" fill="#6B9D52"/>
</g>
<defs>
<clipPath id="clip0_0_1">
<rect width="39.1529" height="39.1529" fill="white" transform="translate(12.8 13.5527)"/>
</clipPath>
</defs>
</svg>
